<svg width="52" height="52" viewBox="0 0 52 52" fill="none" xmlns="http://www.w3.org/2000/svg">
<g id="Bot ">
<g id="Ellipse 20" filter="url(#filter0_d_3_544)">
<circle cx="26" cy="22" r="22" fill="#F5F5F5"/>
</g>
<path id="Vector" d="M39.5 35.75C39.5 36.4412 38.828 37 38 37C37.172 37 36.5 36.4412 36.5 35.75C36.5 32.9925 33.809 30.75 30.5 30.75H21.5C18.191 30.75 15.5 32.9925 15.5 35.75C15.5 36.4412 14.828 37 14 37C13.172 37 12.5 36.4412 12.5 35.75C12.5 31.6138 16.5365 28.25 21.5 28.25H30.5C35.4635 28.25 39.5 31.6138 39.5 35.75ZM41 16.375V18.875C41 19.9087 39.9905 20.75 38.75 20.75H38C38 23.5075 35.309 25.75 32 25.75H20C16.691 25.75 14 23.5075 14 20.75H13.25C12.0095 20.75 11 19.9087 11 18.875V16.375C11 15.3413 12.0095 14.5 13.25 14.5H14C14 11.7425 16.691 9.5 20 9.5H24.5V8.25C24.5 7.55875 25.172 7 26 7C26.828 7 27.5 7.55875 27.5 8.25V9.5H32C35.309 9.5 38 11.7425 38 14.5H38.75C39.9905 14.5 41 15.3413 41 16.375ZM35 14.5C35 13.1213 33.6545 12 32 12H20C18.3455 12 17 13.1213 17 14.5V20.75C17 22.1287 18.3455 23.25 20 23.25H32C33.6545 23.25 35 22.1287 35 20.75V14.5ZM22.25 15.75C21.008 15.75 20 16.59 20 17.625C20 18.66 21.008 19.5 22.25 19.5C23.492 19.5 24.5 18.66 24.5 17.625C24.5 16.59 23.492 15.75 22.25 15.75ZM29.75 15.75C28.508 15.75 27.5 16.59 27.5 17.625C27.5 18.66 28.508 19.5 29.75 19.5C30.992 19.5 32 18.66 32 17.625C32 16.59 30.992 15.75 29.75 15.75Z" fill="#3247E8" fill-opacity="0.76"/>
</g>
<defs>
<filter id="filter0_d_3_544" x="0" y="0" width="52" height="52" filterUnits="userSpaceOnUse" color-interpolation-filters="sRGB">
<feFlood flood-opacity="0" result="BackgroundImageFix"/>
<feColorMatrix in="SourceAlpha" type="matrix" values="0 0 0 0 0 0 0 0 0 0 0 0 0 0 0 0 0 0 127 0" result="hardAlpha"/>
<feOffset dy="4"/>
<feGaussianBlur stdDeviation="2"/>
<feComposite in2="hardAlpha" operator="out"/>
<feColorMatrix type="matrix" values="0 0 0 0 0 0 0 0 0 0 0 0 0 0 0 0 0 0 0.25 0"/>
<feBlend mode="normal" in2="BackgroundImageFix" result="effect1_dropShadow_3_544"/>
<feBlend mode="normal" in="SourceGraphic" in2="effect1_dropShadow_3_544" result="shape"/>
</filter>
</defs>
</svg>
