<svg width="30" height="30" viewBox="0 0 30 30" fill="none" xmlns="http://www.w3.org/2000/svg">
<path id="Icon" d="M28.5 28.75C28.5 29.4412 27.828 30 27 30C26.172 30 25.5 29.4412 25.5 28.75C25.5 25.9925 22.809 23.75 19.5 23.75H10.5C7.191 23.75 4.5 25.9925 4.5 28.75C4.5 29.4412 3.828 30 3 30C2.172 30 1.5 29.4412 1.5 28.75C1.5 24.6138 5.5365 21.25 10.5 21.25H19.5C24.4635 21.25 28.5 24.6138 28.5 28.75ZM30 9.375V11.875C30 12.9087 28.9905 13.75 27.75 13.75H27C27 16.5075 24.309 18.75 21 18.75H9C5.691 18.75 3 16.5075 3 13.75H2.25C1.0095 13.75 0 12.9087 0 11.875V9.375C0 8.34125 1.0095 7.5 2.25 7.5H3C3 4.7425 5.691 2.5 9 2.5H13.5V1.25C13.5 0.55875 14.172 0 15 0C15.828 0 16.5 0.55875 16.5 1.25V2.5H21C24.309 2.5 27 4.7425 27 7.5H27.75C28.9905 7.5 30 8.34125 30 9.375ZM24 7.5C24 6.12125 22.6545 5 21 5H9C7.3455 5 6 6.12125 6 7.5V13.75C6 15.1287 7.3455 16.25 9 16.25H21C22.6545 16.25 24 15.1287 24 13.75V7.5ZM11.25 8.75C10.008 8.75 9 9.59 9 10.625C9 11.66 10.008 12.5 11.25 12.5C12.492 12.5 13.5 11.66 13.5 10.625C13.5 9.59 12.492 8.75 11.25 8.75ZM18.75 8.75C17.508 8.75 16.5 9.59 16.5 10.625C16.5 11.66 17.508 12.5 18.75 12.5C19.992 12.5 21 11.66 21 10.625C21 9.59 19.992 8.75 18.75 8.75Z" fill="#3247E8" fill-opacity="0.76"/>
</svg>
