<svg width="40" height="40" viewBox="0 0 40 40" fill="none" xmlns="http://www.w3.org/2000/svg">
<g clip-path="url(#clip0_231_5)">
<path d="M29.6448 11.7858C29.0972 11.677 28.6503 11.3356 28.421 10.8474C25.8613 5.45251 19.9386 2.43593 14.0143 3.52777C8.61781 4.51735 4.38734 8.82534 3.48517 14.2499C3.21798 15.8514 3.23777 17.4545 3.53959 19.0164C3.63855 19.526 3.41919 20.0934 2.96893 20.5024C1.08048 22.2194 -0.00146484 24.6653 -0.00146484 27.2151C-0.00146484 32.2158 4.06737 36.2863 9.06972 36.2863H27.2121C34.0336 36.2863 39.5819 30.738 39.5819 23.9165C39.5819 18.0367 35.4025 12.9354 29.6432 11.7875L29.6448 11.7858ZM27.2137 32.986H9.07136C5.88821 32.986 3.2988 30.3966 3.2988 27.2134C3.2988 25.5922 3.9882 24.0336 5.1889 22.9417C6.48525 21.7625 7.09385 20.0175 6.77718 18.3847C6.54958 17.2104 6.53638 16.0015 6.7376 14.7876C7.40227 10.793 10.6382 7.496 14.6064 6.76866C15.2414 6.65321 15.8731 6.59713 16.4949 6.59713C20.3081 6.59713 23.7617 8.72308 25.4374 12.2608C26.1202 13.699 27.4166 14.7035 28.9966 15.0201C33.2172 15.8629 36.2816 19.6019 36.2816 23.9165C36.2816 28.9172 32.2128 32.9877 27.2104 32.9877L27.2137 32.986ZM24.9393 21.9241C25.5842 22.569 25.5842 23.6114 24.9393 24.2562L20.4747 28.7209C19.8364 29.3592 18.9969 29.6808 18.1574 29.6841L18.1425 29.6874L18.1277 29.6841C17.2882 29.6808 16.4487 29.3592 15.8104 28.7209L11.3458 24.2562C10.7009 23.6114 10.7009 22.569 11.3458 21.9241C11.9906 21.2792 13.033 21.2792 13.6779 21.9241L16.4932 24.7395V16.493C16.4932 15.5809 17.2321 14.8437 18.1425 14.8437C19.053 14.8437 19.7919 15.5809 19.7919 16.493V24.7395L22.6072 21.9241C23.2521 21.2792 24.2945 21.2792 24.9393 21.9241Z" fill="black"/>
</g>
<defs>
<clipPath id="clip0_231_5">
<rect width="39.5833" height="39.5833" fill="white"/>
</clipPath>
</defs>
</svg>
