<svg width="30" height="40" viewBox="0 0 30 40" fill="none" xmlns="http://www.w3.org/2000/svg">
<path d="M27.5906 5.35742L24.8594 2.62287C24.0952 1.85481 23.1863 1.24593 22.1852 0.831465C21.1842 0.417004 20.1109 0.205191 19.0274 0.208285H8.56586C6.37955 0.210904 4.28354 1.08057 2.73758 2.62653C1.19162 4.17249 0.321955 6.2685 0.319336 8.45481V31.5451C0.321955 33.7314 1.19162 35.8274 2.73758 37.3734C4.28354 38.9193 6.37955 39.789 8.56586 39.7916H21.7603C23.9466 39.789 26.0426 38.9193 27.5886 37.3734C29.1346 35.8274 30.0042 33.7314 30.0068 31.5451V11.1877C30.0095 10.1044 29.7973 9.03136 29.3826 8.0306C28.9678 7.02984 28.3588 6.12126 27.5906 5.35742ZM25.2585 7.68954C25.4924 7.92262 25.7019 8.17905 25.8836 8.45481H21.7603V4.33155C22.0356 4.51515 22.2925 4.72505 22.5272 4.95829L25.2585 7.68954ZM26.7082 31.5451C26.7082 32.8574 26.1869 34.1159 25.259 35.0438C24.3311 35.9717 23.0726 36.493 21.7603 36.493H8.56586C7.25359 36.493 5.99507 35.9717 5.06716 35.0438C4.13924 34.1159 3.61795 32.8574 3.61795 31.5451V8.45481C3.61795 7.14255 4.13924 5.88402 5.06716 4.95611C5.99507 4.02819 7.25359 3.5069 8.56586 3.5069H18.4617V8.45481C18.4617 9.32966 18.8092 10.1687 19.4278 10.7873C20.0464 11.4059 20.8855 11.7534 21.7603 11.7534H26.7082V31.5451ZM21.7603 15.052C22.1977 15.052 22.6172 15.2258 22.9265 15.5351C23.2358 15.8444 23.4096 16.2639 23.4096 16.7013C23.4096 17.1388 23.2358 17.5583 22.9265 17.8676C22.6172 18.1769 22.1977 18.3506 21.7603 18.3506H8.56586C8.12844 18.3506 7.70893 18.1769 7.39963 17.8676C7.09032 17.5583 6.91656 17.1388 6.91656 16.7013C6.91656 16.2639 7.09032 15.8444 7.39963 15.5351C7.70893 15.2258 8.12844 15.052 8.56586 15.052H21.7603ZM23.4096 23.2986C23.4096 23.736 23.2358 24.1555 22.9265 24.4648C22.6172 24.7741 22.1977 24.9479 21.7603 24.9479H8.56586C8.12844 24.9479 7.70893 24.7741 7.39963 24.4648C7.09032 24.1555 6.91656 23.736 6.91656 23.2986C6.91656 22.8611 7.09032 22.4416 7.39963 22.1323C7.70893 21.823 8.12844 21.6493 8.56586 21.6493H21.7603C22.1977 21.6493 22.6172 21.823 22.9265 22.1323C23.2358 22.4416 23.4096 22.8611 23.4096 23.2986ZM23.0929 28.9277C23.3493 29.2804 23.4556 29.7202 23.3885 30.1511C23.3215 30.5819 23.0865 30.9687 22.735 31.2268C21.064 32.4175 19.0848 33.1007 17.035 33.1944C15.8375 33.1886 14.6762 32.7822 13.7364 32.0399C13.1955 31.6688 12.9893 31.5451 12.5819 31.5451C11.4792 31.7157 10.4388 32.1666 9.56039 32.8546C9.21198 33.103 8.78066 33.2063 8.35754 33.1426C7.93442 33.0789 7.55261 32.8533 7.29274 32.5133C7.03287 32.1734 6.91528 31.7458 6.9648 31.3208C7.01432 30.8958 7.22707 30.5066 7.55814 30.2355C9.01147 29.1073 10.7566 28.4173 12.5885 28.2465C13.6872 28.264 14.7493 28.6438 15.61 29.3268C16.0024 29.6797 16.5075 29.8814 17.035 29.8958C18.3836 29.7948 19.6805 29.334 20.7905 28.5615C21.1445 28.3049 21.5858 28.1994 22.0175 28.268C22.4492 28.3367 22.836 28.5739 23.0929 28.9277Z" fill="black"/>
</svg>
