<svg width="30" height="30" viewBox="0 0 30 30" fill="none" xmlns="http://www.w3.org/2000/svg">
<g clip-path="url(#clip0_469_3)">
<path d="M10 20C10 21.035 9.16 21.875 8.125 21.875C7.09 21.875 6.25 21.035 6.25 20C6.25 18.965 7.09 18.125 8.125 18.125C9.16 18.125 10 18.965 10 20ZM8.125 5.625C7.09 5.625 6.25 6.465 6.25 7.5C6.25 8.535 7.09 9.375 8.125 9.375C9.16 9.375 10 8.535 10 7.5C10 6.465 9.16 5.625 8.125 5.625ZM8.125 11.875C7.09 11.875 6.25 12.715 6.25 13.75C6.25 14.785 7.09 15.625 8.125 15.625C9.16 15.625 10 14.785 10 13.75C10 12.715 9.16 11.875 8.125 11.875ZM23.75 0H6.25C2.80375 0 0 2.80375 0 6.25V22.5C0 25.9462 2.80375 28.75 6.25 28.75H10C10.69 28.75 11.25 28.1912 11.25 27.5C11.25 26.8088 10.69 26.25 10 26.25H6.25C4.1825 26.25 2.5 24.5675 2.5 22.5V6.25C2.5 4.1825 4.1825 2.5 6.25 2.5H23.75C25.8175 2.5 27.5 4.1825 27.5 6.25V17.5C27.5 18.1912 28.06 18.75 28.75 18.75C29.44 18.75 30 18.1912 30 17.5V6.25C30 2.80375 27.1962 0 23.75 0ZM13.75 8.75H22.5C23.19 8.75 23.75 8.19 23.75 7.5C23.75 6.81 23.19 6.25 22.5 6.25H13.75C13.06 6.25 12.5 6.81 12.5 7.5C12.5 8.19 13.06 8.75 13.75 8.75ZM13.75 15H22.5C23.19 15 23.75 14.44 23.75 13.75C23.75 13.06 23.19 12.5 22.5 12.5H13.75C13.06 12.5 12.5 13.06 12.5 13.75C12.5 14.44 13.06 15 13.75 15ZM29.6312 23.1862C30.12 23.9087 30.12 24.8413 29.6312 25.5638C28.5112 27.22 25.9325 30 21.25 30C16.5675 30 13.9887 27.22 12.8675 25.5638C12.3787 24.84 12.3787 23.9075 12.8675 23.1862C13.9875 21.53 16.565 18.75 21.2488 18.75C25.9325 18.75 28.5112 21.53 29.6312 23.1862ZM27.4125 24.375C26.5 23.1175 24.5838 21.25 21.25 21.25C17.9162 21.25 15.9987 23.1188 15.0875 24.375C15.9987 25.6325 17.9162 27.5 21.25 27.5C24.5838 27.5 26.5 25.6325 27.4125 24.375ZM21.25 22.5C20.215 22.5 19.375 23.34 19.375 24.375C19.375 25.41 20.215 26.25 21.25 26.25C22.285 26.25 23.125 25.41 23.125 24.375C23.125 23.34 22.285 22.5 21.25 22.5Z" fill="black"/>
</g>
<defs>
<clipPath id="clip0_469_3">
<rect width="30" height="30" fill="white"/>
</clipPath>
</defs>
</svg>
