<svg width="34" height="34" viewBox="0 0 34 34" fill="none" xmlns="http://www.w3.org/2000/svg">
<g id="pause 1">
<g clip-path="url(#clip0_3_514)">
<path id="Vector" d="M9.51086 0.779846C8.24328 0.779846 7.02762 1.28339 6.1313 2.1797C5.23499 3.07602 4.73145 4.29168 4.73145 5.55926V28.7735C4.73145 30.0411 5.23499 31.2568 6.1313 32.1531C7.02762 33.0494 8.24328 33.553 9.51086 33.553C10.7784 33.553 11.9941 33.0494 12.8904 32.1531C13.7867 31.2568 14.2903 30.0411 14.2903 28.7735V5.55926C14.2903 4.29168 13.7867 3.07602 12.8904 2.1797C11.9941 1.28339 10.7784 0.779846 9.51086 0.779846ZM11.5592 28.7735C11.5592 29.3168 11.3434 29.8378 10.9592 30.2219C10.5751 30.6061 10.0541 30.8219 9.51086 30.8219C8.96761 30.8219 8.44661 30.6061 8.06248 30.2219C7.67834 29.8378 7.46254 29.3168 7.46254 28.7735V5.55926C7.46254 5.01601 7.67834 4.49501 8.06248 4.11088C8.44661 3.72674 8.96761 3.51094 9.51086 3.51094C10.0541 3.51094 10.5751 3.72674 10.9592 4.11088C11.3434 4.49501 11.5592 5.01601 11.5592 5.55926V28.7735Z" fill="#A19B9B"/>
<path id="Vector_2" d="M24.5314 0.779846C23.2638 0.779846 22.0481 1.28339 21.1518 2.1797C20.2555 3.07602 19.752 4.29168 19.752 5.55926V28.7735C19.752 30.0411 20.2555 31.2568 21.1518 32.1531C22.0481 33.0494 23.2638 33.553 24.5314 33.553C25.7989 33.553 27.0146 33.0494 27.9109 32.1531C28.8072 31.2568 29.3108 30.0411 29.3108 28.7735V5.55926C29.3108 4.29168 28.8072 3.07602 27.9109 2.1797C27.0146 1.28339 25.7989 0.779846 24.5314 0.779846ZM26.5797 28.7735C26.5797 29.3168 26.3639 29.8378 25.9797 30.2219C25.5956 30.6061 25.0746 30.8219 24.5314 30.8219C23.9881 30.8219 23.4671 30.6061 23.083 30.2219C22.6989 29.8378 22.483 29.3168 22.483 28.7735V5.55926C22.483 5.01601 22.6989 4.49501 23.083 4.11088C23.4671 3.72674 23.9881 3.51094 24.5314 3.51094C25.0746 3.51094 25.5956 3.72674 25.9797 4.11088C26.3639 4.49501 26.5797 5.01601 26.5797 5.55926V28.7735Z" fill="#A19B9B"/>
</g>
<rect x="1.13477" y="1.27985" width="31.7731" height="31.7731" stroke="#D9D9D9"/>
</g>
<defs>
<clipPath id="clip0_3_514">
<rect x="0.634766" y="0.779846" width="32.7731" height="32.7731" fill="white"/>
</clipPath>
</defs>
</svg>
