<svg width="34" height="34" viewBox="0 0 34 34" fill="none" xmlns="http://www.w3.org/2000/svg">
<g id="settings 1">
<g clip-path="url(#clip0_3_523)">
<path id="Vector" d="M16.8968 11.7042C15.8164 11.7042 14.7604 12.0246 13.8621 12.6248C12.9639 13.225 12.2638 14.078 11.8504 15.0761C11.4369 16.0742 11.3288 17.1725 11.5395 18.232C11.7503 19.2916 12.2705 20.2649 13.0344 21.0288C13.7983 21.7927 14.7716 22.3129 15.8311 22.5236C16.8907 22.7344 17.989 22.6262 18.987 22.2128C19.9851 21.7994 20.8382 21.0993 21.4384 20.201C22.0386 19.3028 22.3589 18.2467 22.3589 17.1664C22.3589 15.7177 21.7835 14.3284 20.7591 13.3041C19.7347 12.2797 18.3454 11.7042 16.8968 11.7042ZM16.8968 19.8975C16.3566 19.8975 15.8286 19.7373 15.3794 19.4372C14.9303 19.1371 14.5803 18.7106 14.3736 18.2116C14.1668 17.7125 14.1128 17.1634 14.2181 16.6336C14.3235 16.1038 14.5836 15.6172 14.9656 15.2352C15.3475 14.8533 15.8342 14.5932 16.3639 14.4878C16.8937 14.3824 17.4429 14.4365 17.9419 14.6432C18.4409 14.8499 18.8675 15.2 19.1676 15.6491C19.4677 16.0982 19.6279 16.6262 19.6279 17.1664C19.6279 17.8907 19.3401 18.5854 18.8279 19.0976C18.3158 19.6098 17.6211 19.8975 16.8968 19.8975Z" fill="#A19B9B"/>
<path id="Vector_2" d="M29.5881 19.7609L28.9818 19.4114C29.2547 17.9262 29.2547 16.4038 28.9818 14.9187L29.5881 14.5691C30.0543 14.3001 30.463 13.942 30.7908 13.515C31.1187 13.0881 31.3592 12.6007 31.4987 12.0809C31.6381 11.561 31.6738 11.0187 31.6038 10.485C31.5337 9.9513 31.3592 9.43664 31.0902 8.97039C30.8212 8.50414 30.463 8.09544 30.036 7.76762C29.6091 7.43981 29.1218 7.19929 28.6019 7.0598C28.082 6.92032 27.5397 6.88461 27.006 6.95469C26.4723 7.02478 25.9577 7.1993 25.4914 7.46829L24.8838 7.81924C23.7361 6.83866 22.4171 6.0785 20.9933 5.57701V4.87648C20.9933 3.78999 20.5617 2.74799 19.7934 1.97972C19.0252 1.21146 17.9832 0.779846 16.8967 0.779846C15.8102 0.779846 14.7682 1.21146 13.9999 1.97972C13.2316 2.74799 12.8 3.78999 12.8 4.87648V5.57701C11.3763 6.08031 10.0578 6.84233 8.91096 7.8247L8.30056 7.47102C7.35893 6.92777 6.24007 6.78084 5.1901 7.06254C4.14013 7.34423 3.24507 8.03149 2.70182 8.97312C2.15858 9.91475 2.01164 11.0336 2.29334 12.0836C2.57504 13.1336 3.2623 14.0286 4.20392 14.5719L4.81023 14.9214C4.53727 16.4066 4.53727 17.929 4.81023 19.4141L4.20392 19.7637C3.2623 20.3069 2.57504 21.202 2.29334 22.2519C2.01164 23.3019 2.15858 24.4208 2.70182 25.3624C3.24507 26.304 4.14013 26.9913 5.1901 27.273C6.24007 27.5547 7.35893 27.4078 8.30056 26.8645L8.90823 26.5136C10.0563 27.4943 11.3757 28.2544 12.8 28.7558V29.4563C12.8 30.5428 13.2316 31.5848 13.9999 32.3531C14.7682 33.1213 15.8102 33.553 16.8967 33.553C17.9832 33.553 19.0252 33.1213 19.7934 32.3531C20.5617 31.5848 20.9933 30.5428 20.9933 29.4563V28.7558C22.417 28.2525 23.7355 27.4905 24.8824 26.5081L25.4928 26.8604C26.4344 27.4037 27.5533 27.5506 28.6033 27.2689C29.6532 26.9872 30.5483 26.2999 31.0915 25.3583C31.6348 24.4167 31.7817 23.2978 31.5 22.2478C31.2183 21.1979 30.5311 20.3028 29.5894 19.7596L29.5881 19.7609ZM26.1087 14.6046C26.5711 16.2802 26.5711 18.0498 26.1087 19.7254C26.0279 20.0171 26.0463 20.3273 26.161 20.6073C26.2757 20.8874 26.4801 21.1214 26.7423 21.2726L28.2225 22.1274C28.5363 22.3085 28.7654 22.6068 28.8592 22.9568C28.9531 23.3067 28.9041 23.6796 28.723 23.9935C28.5419 24.3073 28.2436 24.5363 27.8936 24.6301C27.5437 24.724 27.1708 24.675 26.857 24.4939L25.374 23.6364C25.1117 23.4844 24.8062 23.4241 24.5058 23.4649C24.2054 23.5057 23.9272 23.6453 23.7148 23.8617C22.4994 25.1025 20.9682 25.9878 19.2864 26.4221C18.9928 26.4975 18.7327 26.6685 18.5471 26.9081C18.3614 27.1477 18.2607 27.4422 18.2609 27.7453V29.4563C18.2609 29.8185 18.117 30.1658 17.8609 30.4219C17.6048 30.678 17.2575 30.8219 16.8953 30.8219C16.5331 30.8219 16.1858 30.678 15.9297 30.4219C15.6736 30.1658 15.5298 29.8185 15.5298 29.4563V27.7467C15.5299 27.4436 15.4292 27.149 15.2436 26.9095C15.0579 26.6699 14.7978 26.4989 14.5042 26.4234C12.8224 25.9874 11.2916 25.1002 10.0771 23.8576C9.86483 23.6412 9.58655 23.5016 9.28615 23.4608C8.98576 23.42 8.68033 23.4803 8.418 23.6323L6.93775 24.4885C6.78239 24.5795 6.61055 24.639 6.43212 24.6634C6.25369 24.6878 6.0722 24.6766 5.89809 24.6306C5.72399 24.5846 5.56071 24.5046 5.41765 24.3952C5.27459 24.2858 5.15459 24.1492 5.06454 23.9932C4.9745 23.8373 4.91619 23.665 4.89298 23.4864C4.86976 23.3079 4.8821 23.1264 4.92929 22.9526C4.97647 22.7788 5.05757 22.6161 5.16791 22.4738C5.27825 22.3314 5.41565 22.2123 5.5722 22.1233L7.05245 21.2685C7.31457 21.1173 7.51903 20.8833 7.63371 20.6032C7.7484 20.3232 7.76681 20.013 7.68607 19.7213C7.22364 18.0457 7.22364 16.2762 7.68607 14.6005C7.76536 14.3095 7.74606 14.0004 7.63119 13.7215C7.51632 13.4426 7.31234 13.2096 7.05109 13.0588L5.57084 12.204C5.25702 12.0229 5.02799 11.7246 4.93414 11.3746C4.84028 11.0247 4.88928 10.6518 5.07036 10.338C5.25145 10.0242 5.54978 9.79514 5.89972 9.70129C6.24967 9.60743 6.62257 9.65643 6.93638 9.83751L8.41937 10.6951C8.68098 10.8474 8.98577 10.9084 9.28584 10.8686C9.58592 10.8288 9.86426 10.6904 10.0771 10.4752C11.2926 9.23441 12.8238 8.3491 14.5056 7.91482C14.8001 7.83912 15.0608 7.66732 15.2466 7.42664C15.4324 7.18597 15.5325 6.89018 15.5311 6.58615V4.87648C15.5311 4.51432 15.675 4.16699 15.9311 3.9109C16.1872 3.65481 16.5345 3.51094 16.8967 3.51094C17.2588 3.51094 17.6062 3.65481 17.8623 3.9109C18.1184 4.16699 18.2622 4.51432 18.2622 4.87648V6.58615C18.2621 6.88924 18.3628 7.18377 18.5484 7.42334C18.7341 7.66291 18.9942 7.83389 19.2877 7.90936C20.9701 8.34518 22.5014 9.23242 23.7162 10.4752C23.9285 10.6916 24.2068 10.8312 24.5072 10.872C24.8076 10.9128 25.113 10.8525 25.3754 10.7005L26.8556 9.84434C27.011 9.75326 27.1828 9.69382 27.3612 9.66942C27.5397 9.64502 27.7212 9.65616 27.8953 9.70219C28.0694 9.74822 28.2326 9.82824 28.3757 9.93763C28.5188 10.047 28.6388 10.1836 28.7288 10.3396C28.8189 10.4955 28.8772 10.6678 28.9004 10.8464C28.9236 11.025 28.9112 11.2064 28.8641 11.3802C28.8169 11.554 28.7358 11.7167 28.6254 11.859C28.5151 12.0014 28.3777 12.1205 28.2211 12.2095L26.7409 13.0643C26.4801 13.2155 26.2767 13.4487 26.1624 13.7275C26.048 14.0064 26.0291 14.3153 26.1087 14.606V14.6046Z" fill="#A19B9B"/>
</g>
<rect x="1.00977" y="1.27985" width="31.7731" height="31.7731" stroke="#D9D9D9"/>
</g>
<defs>
<clipPath id="clip0_3_523">
<rect x="0.509766" y="0.779846" width="32.7731" height="32.7731" fill="white"/>
</clipPath>
</defs>
</svg>
