<svg width="30" height="30" viewBox="0 0 30 30" fill="none" xmlns="http://www.w3.org/2000/svg">
<g id="compress 1">
<g clip-path="url(#clip0_3_528)">
<path id="Vector" d="M8.75 6.10352e-05C8.41848 6.10352e-05 8.10054 0.131757 7.86612 0.366178C7.6317 0.600598 7.5 0.91854 7.5 1.25006V3.75006C7.5 4.74462 7.10491 5.69845 6.40165 6.40171C5.69839 7.10497 4.74456 7.50006 3.75 7.50006H1.25C0.918479 7.50006 0.600537 7.63176 0.366117 7.86618C0.131696 8.1006 0 8.41854 0 8.75006C0 9.08158 0.131696 9.39952 0.366117 9.63394C0.600537 9.86836 0.918479 10.0001 1.25 10.0001H3.75C5.40699 9.99808 6.99555 9.33896 8.16722 8.16729C9.3389 6.99561 9.99802 5.40705 10 3.75006V1.25006C10 0.91854 9.8683 0.600598 9.63388 0.366178C9.39946 0.131757 9.08152 6.10352e-05 8.75 6.10352e-05Z" fill="#A19B9B"/>
<path id="Vector_2" d="M28.75 20.0001H26.25C24.593 20.002 23.0044 20.6612 21.8328 21.8328C20.6611 23.0045 20.002 24.5931 20 26.2501V28.7501C20 29.0816 20.1317 29.3995 20.3661 29.6339C20.6005 29.8684 20.9185 30.0001 21.25 30.0001C21.5815 30.0001 21.8995 29.8684 22.1339 29.6339C22.3683 29.3995 22.5 29.0816 22.5 28.7501V26.2501C22.5 25.2555 22.8951 24.3017 23.5983 23.5984C24.3016 22.8951 25.2554 22.5001 26.25 22.5001H28.75C29.0815 22.5001 29.3995 22.3684 29.6339 22.1339C29.8683 21.8995 30 21.5816 30 21.2501C30 20.9185 29.8683 20.6006 29.6339 20.3662C29.3995 20.1318 29.0815 20.0001 28.75 20.0001Z" fill="#A19B9B"/>
<path id="Vector_3" d="M26.25 10.0001H28.75C29.0815 10.0001 29.3995 9.86836 29.6339 9.63394C29.8683 9.39952 30 9.08158 30 8.75006C30 8.41854 29.8683 8.1006 29.6339 7.86618C29.3995 7.63176 29.0815 7.50006 28.75 7.50006H26.25C25.2554 7.50006 24.3016 7.10497 23.5983 6.40171C22.8951 5.69845 22.5 4.74462 22.5 3.75006V1.25006C22.5 0.91854 22.3683 0.600598 22.1339 0.366178C21.8995 0.131757 21.5815 6.10352e-05 21.25 6.10352e-05C20.9185 6.10352e-05 20.6005 0.131757 20.3661 0.366178C20.1317 0.600598 20 0.91854 20 1.25006V3.75006C20.002 5.40705 20.6611 6.99561 21.8328 8.16729C23.0044 9.33896 24.593 9.99808 26.25 10.0001Z" fill="#A19B9B"/>
<path id="Vector_4" d="M3.75 20.0001H1.25C0.918479 20.0001 0.600537 20.1318 0.366117 20.3662C0.131696 20.6006 0 20.9185 0 21.2501C0 21.5816 0.131696 21.8995 0.366117 22.1339C0.600537 22.3684 0.918479 22.5001 1.25 22.5001H3.75C4.74456 22.5001 5.69839 22.8951 6.40165 23.5984C7.10491 24.3017 7.5 25.2555 7.5 26.2501V28.7501C7.5 29.0816 7.6317 29.3995 7.86612 29.6339C8.10054 29.8684 8.41848 30.0001 8.75 30.0001C9.08152 30.0001 9.39946 29.8684 9.63388 29.6339C9.8683 29.3995 10 29.0816 10 28.7501V26.2501C9.99802 24.5931 9.3389 23.0045 8.16722 21.8328C6.99555 20.6612 5.40699 20.002 3.75 20.0001Z" fill="#A19B9B"/>
</g>
<rect x="0.5" y="0.500061" width="29" height="29" stroke="#D9D9D9"/>
</g>
<defs>
<clipPath id="clip0_3_528">
<rect y="6.10352e-05" width="30" height="30" fill="white"/>
</clipPath>
</defs>
</svg>
