<svg width="20" height="20" viewBox="0 0 20 20" fill="none" xmlns="http://www.w3.org/2000/svg">
<path id="Vector" d="M18.9775 7.09124C18.5867 6.56591 18.1038 6.14466 17.5613 5.85602C17.0189 5.56737 16.4296 5.41807 15.8333 5.41822H12.5092L12.7892 3.43413C12.8882 2.73543 12.7687 2.01846 12.4524 1.414C12.1361 0.809545 11.644 0.357868 11.066 0.141357C10.488 -0.0751541 9.8625 -0.0420728 9.30365 0.234567C8.74479 0.511207 8.2898 1.01297 8.02167 1.64834L6.42667 5.41822H4.16667C3.062 5.41976 2.00296 5.93236 1.22185 6.84356C0.440735 7.75476 0.00132321 8.99018 0 10.2788L0 15.1394C0.00132321 16.428 0.440735 17.6635 1.22185 18.5747C2.00296 19.4859 3.062 19.9985 4.16667 20H15.25C16.2529 19.9952 17.221 19.5706 17.9782 18.8035C18.7354 18.0363 19.2313 16.9776 19.3758 15.8199L19.9633 10.9593C20.0461 10.2698 20.0009 9.56762 19.8308 8.90028C19.6607 8.23294 19.3697 7.616 18.9775 7.09124ZM1.66667 15.1394V10.2788C1.66667 9.50535 1.93006 8.76356 2.3989 8.21664C2.86774 7.66971 3.50363 7.36246 4.16667 7.36246H5.83333V18.0558H4.16667C3.50363 18.0558 2.86774 17.7485 2.3989 17.2016C1.93006 16.6547 1.66667 15.9129 1.66667 15.1394ZM18.3092 10.6861L17.7208 15.5467C17.6348 16.2408 17.3381 16.8758 16.8847 17.3363C16.4312 17.7967 15.8512 18.052 15.25 18.0558H7.5V7.10387C7.57853 7.02406 7.64355 6.92778 7.69167 6.82001L9.51583 2.50867C9.58424 2.36473 9.68095 2.24177 9.79802 2.14992C9.91509 2.05806 10.0492 1.99992 10.1893 1.98028C10.3293 1.96064 10.4714 1.98005 10.6038 2.03693C10.7362 2.0938 10.8551 2.18651 10.9508 2.30744C11.0327 2.4185 11.0926 2.54927 11.1261 2.69042C11.1597 2.83157 11.1661 2.97963 11.145 3.12402L10.705 6.2348C10.6857 6.37379 10.6925 6.51602 10.7249 6.65165C10.7574 6.78727 10.8147 6.91306 10.8929 7.0203C10.9711 7.12754 11.0684 7.21368 11.178 7.27276C11.2875 7.33183 11.4068 7.36244 11.5275 7.36246H15.8333C16.1912 7.3624 16.5448 7.45196 16.8705 7.62507C17.1961 7.79818 17.486 8.05082 17.7207 8.36591C17.9555 8.681 18.1294 9.05119 18.231 9.45147C18.3325 9.85176 18.3591 10.2728 18.3092 10.6861Z" fill="#A8A1A1"/>
</svg>
