<svg width="32" height="32" viewBox="0 0 32 32" fill="none" xmlns="http://www.w3.org/2000/svg">
<g clip-path="url(#clip0_226_1151)">
<path d="M7.57633 14.5696C10.1229 14.5696 12.1944 12.498 12.1944 9.9515C12.1944 7.40497 10.1229 5.33344 7.57633 5.33344C5.0298 5.33344 2.95828 7.40497 2.95828 9.9515C2.95828 12.498 5.0298 14.5696 7.57633 14.5696ZM7.57633 7.97233C8.66751 7.97233 9.5555 8.86032 9.5555 9.9515C9.5555 11.0427 8.66751 11.9307 7.57633 11.9307C6.48515 11.9307 5.59716 11.0427 5.59716 9.9515C5.59716 8.86032 6.48515 7.97233 7.57633 7.97233ZM11.9714 18.9422C11.5637 19.5478 10.7456 19.7101 10.14 19.3037C9.38133 18.7944 8.49466 18.5266 7.57633 18.5266C5.21848 18.5266 3.24591 20.2907 2.98598 22.63C2.91077 23.3043 2.33946 23.8043 1.67578 23.8043C1.62828 23.8043 1.57946 23.8017 1.52932 23.7964C0.804942 23.7159 0.283761 23.0628 0.362928 22.3398C0.770636 18.6625 3.87133 15.8877 7.57633 15.8877C9.0198 15.8877 10.4131 16.3099 11.6099 17.1108C12.2155 17.5172 12.3778 18.3366 11.9714 18.9422ZM20.7708 9.29178C23.3173 9.29178 25.3888 7.22025 25.3888 4.67372C25.3888 2.12719 23.3173 0.0556641 20.7708 0.0556641C18.2242 0.0556641 16.1527 2.12719 16.1527 4.67372C16.1527 7.22025 18.2242 9.29178 20.7708 9.29178ZM20.7708 2.69455C21.862 2.69455 22.7499 3.58254 22.7499 4.67372C22.7499 5.7649 21.862 6.65289 20.7708 6.65289C19.6796 6.65289 18.7916 5.7649 18.7916 4.67372C18.7916 3.58254 19.6796 2.69455 20.7708 2.69455ZM22.7499 13.2501C17.6582 13.2501 13.5138 17.3945 13.5138 22.4862C13.5138 27.578 17.6582 31.7223 22.7499 31.7223C27.8417 31.7223 31.9861 27.578 31.9861 22.4862C31.9861 17.3945 27.8417 13.2501 22.7499 13.2501ZM22.7499 29.0834C19.1122 29.0834 16.1527 26.1239 16.1527 22.4862C16.1527 18.8485 19.1122 15.889 22.7499 15.889C26.3876 15.889 29.3472 18.8485 29.3472 22.4862C29.3472 26.1239 26.3876 29.0834 22.7499 29.0834ZM27.0012 20.8871C27.5052 21.4122 27.4881 22.2474 26.9629 22.7527L24.043 25.5553C23.4466 26.1437 22.6549 26.4406 21.862 26.4406C21.069 26.4406 20.2747 26.1437 19.6677 25.5513L18.1741 24.088C17.6529 23.5774 17.6463 22.7422 18.1556 22.2223C18.6649 21.7012 19.5002 21.6932 20.0213 22.2039L21.5136 23.6658C21.7036 23.8532 22.0137 23.8492 22.2024 23.6632L25.1355 20.8475C25.6593 20.3448 26.4958 20.3593 27.0012 20.8857V20.8871Z" fill="black"/>
</g>
<defs>
<clipPath id="clip0_226_1151">
<rect width="31.6667" height="31.6667" fill="white" transform="translate(0.319336 0.0556641)"/>
</clipPath>
</defs>
</svg>
