<svg width="30" height="30" viewBox="0 0 30 30" fill="none" xmlns="http://www.w3.org/2000/svg">
<g clip-path="url(#clip0_469_7)">
<path d="M21.25 0H8.75C7.09301 0.00198482 5.50445 0.661102 4.33278 1.83277C3.1611 3.00445 2.50198 4.59301 2.5 6.25V25C2.5 26.3261 3.02678 27.5979 3.96447 28.5355C4.90215 29.4732 6.17392 30 7.5 30H21.25C22.907 29.998 24.4956 29.3389 25.6672 28.1672C26.8389 26.9956 27.498 25.407 27.5 23.75V6.25C27.498 4.59301 26.8389 3.00445 25.6672 1.83277C24.4956 0.661102 22.907 0.00198482 21.25 0ZM25 6.25V20H10V2.5H21.25C22.2446 2.5 23.1984 2.89509 23.9017 3.59835C24.6049 4.30161 25 5.25544 25 6.25ZM7.5 2.715V20C6.62204 19.9992 5.75951 20.2308 5 20.6713V6.25C5.00011 5.47461 5.24058 4.71832 5.68829 4.08525C6.13601 3.45218 6.76896 2.97346 7.5 2.715ZM21.25 27.5H7.5C6.83696 27.5 6.20107 27.2366 5.73223 26.7678C5.26339 26.2989 5 25.663 5 25C5 24.337 5.26339 23.7011 5.73223 23.2322C6.20107 22.7634 6.83696 22.5 7.5 22.5H25V23.75C25 24.7446 24.6049 25.6984 23.9017 26.4017C23.1984 27.1049 22.2446 27.5 21.25 27.5Z" fill="black"/>
</g>
<defs>
<clipPath id="clip0_469_7">
<rect width="30" height="30" fill="white"/>
</clipPath>
</defs>
</svg>
