<svg width="40" height="40" viewBox="0 0 40 40" fill="none" xmlns="http://www.w3.org/2000/svg">
<path id="Icon" d="M38 38.3333C38 39.255 37.104 40 36 40C34.896 40 34 39.255 34 38.3333C34 34.6567 30.412 31.6667 26 31.6667H14C9.588 31.6667 6 34.6567 6 38.3333C6 39.255 5.104 40 4 40C2.896 40 2 39.255 2 38.3333C2 32.8183 7.382 28.3333 14 28.3333H26C32.618 28.3333 38 32.8183 38 38.3333ZM40 12.5V15.8333C40 17.2117 38.654 18.3333 37 18.3333H36C36 22.01 32.412 25 28 25H12C7.588 25 4 22.01 4 18.3333H3C1.346 18.3333 0 17.2117 0 15.8333V12.5C0 11.1217 1.346 10 3 10H4C4 6.32333 7.588 3.33333 12 3.33333H18V1.66667C18 0.745 18.896 0 20 0C21.104 0 22 0.745 22 1.66667V3.33333H28C32.412 3.33333 36 6.32333 36 10H37C38.654 10 40 11.1217 40 12.5ZM32 10C32 8.16167 30.206 6.66667 28 6.66667H12C9.794 6.66667 8 8.16167 8 10V18.3333C8 20.1717 9.794 21.6667 12 21.6667H28C30.206 21.6667 32 20.1717 32 18.3333V10ZM15 11.6667C13.344 11.6667 12 12.7867 12 14.1667C12 15.5467 13.344 16.6667 15 16.6667C16.656 16.6667 18 15.5467 18 14.1667C18 12.7867 16.656 11.6667 15 11.6667ZM25 11.6667C23.344 11.6667 22 12.7867 22 14.1667C22 15.5467 23.344 16.6667 25 16.6667C26.656 16.6667 28 15.5467 28 14.1667C28 12.7867 26.656 11.6667 25 11.6667Z" fill="#A19B9B"/>
</svg>
