<svg width="30" height="30" viewBox="0 0 30 30" fill="none" xmlns="http://www.w3.org/2000/svg">
<g id="Icon" clip-path="url(#clip0_3_599)">
<path id="Vector" d="M15 0C6.72875 0 0 6.72875 0 15C0 23.2712 6.72875 30 15 30H30V15C30 6.72875 23.2712 0 15 0ZM27.5 27.5H15C8.1075 27.5 2.5 21.8925 2.5 15C2.5 8.1075 8.1075 2.5 15 2.5C21.8925 2.5 27.5 8.1075 27.5 15V27.5ZM16.875 15C16.875 16.035 16.035 16.875 15 16.875C13.965 16.875 13.125 16.035 13.125 15C13.125 13.965 13.965 13.125 15 13.125C16.035 13.125 16.875 13.965 16.875 15ZM23.125 15C23.125 16.035 22.285 16.875 21.25 16.875C20.215 16.875 19.375 16.035 19.375 15C19.375 13.965 20.215 13.125 21.25 13.125C22.285 13.125 23.125 13.965 23.125 15ZM10.625 15C10.625 16.035 9.785 16.875 8.75 16.875C7.715 16.875 6.875 16.035 6.875 15C6.875 13.965 7.715 13.125 8.75 13.125C9.785 13.125 10.625 13.965 10.625 15Z" fill="black"/>
</g>
<defs>
<clipPath id="clip0_3_599">
<rect width="30" height="30" fill="white"/>
</clipPath>
</defs>
</svg>
