<svg width="30" height="30" viewBox="0 0 30 30" fill="none" xmlns="http://www.w3.org/2000/svg">
<g id="Icon" clip-path="url(#clip0_3_568)">
<path id="Vector" d="M30 13.75C30 11.79 29.06 9.95 27.5 8.77625V8.75C27.5 6.37875 25.8413 4.38875 23.6225 3.8775C23.1113 1.66 21.12 0 18.75 0C17.2575 0 15.9163 0.6575 15 1.69625C14.0837 0.65625 12.7425 0 11.25 0C8.88 0 6.88875 1.65875 6.3775 3.8775C4.16 4.38875 2.5 6.37875 2.5 8.75V8.77625C0.94 9.95 0 11.7887 0 13.75C0 14.8575 0.29375 15.9213 0.8575 16.875C0.295 17.8288 0 18.8925 0 20C0 22.1075 1.0725 24.055 2.83375 25.2075C3.7325 28.055 6.34875 30 9.375 30C11.6975 30 13.755 28.8425 15 27.0725C16.245 28.8413 18.3025 30 20.625 30C23.6525 30 26.2687 28.055 27.1663 25.2075C28.9263 24.055 30 22.1075 30 20C30 18.8925 29.7062 17.8288 29.1425 16.875C29.705 15.9213 30 14.8575 30 13.75ZM9.375 27.5C7.3325 27.5 5.58375 26.1063 5.12375 24.11C5.0425 23.7588 4.81375 23.46 4.49625 23.29C3.265 22.63 2.5 21.37 2.5 20.0012C2.5 19.1575 2.7925 18.3487 3.34875 17.6612C3.71875 17.2025 3.71875 16.5487 3.34875 16.09C2.79375 15.4037 2.5 14.595 2.5 13.75C2.5 12.4125 3.23875 11.1663 4.42875 10.4963C4.89125 10.2362 5.13875 9.7125 5.04625 9.19C5.02125 9.04625 5 8.90125 5 8.75C5 7.37125 6.12125 6.25 7.5 6.25C8.19125 6.25 8.75 5.69 8.75 5C8.75 3.62125 9.87125 2.5 11.25 2.5C12.6287 2.5 13.75 3.62125 13.75 5V10H10.915C10.4825 9.2525 9.675 8.75 8.75 8.75C7.36875 8.75 6.25 9.86875 6.25 11.25C6.25 12.6313 7.36875 13.75 8.75 13.75C9.675 13.75 10.4825 13.2475 10.915 12.5H13.75V18.75H10.915C10.4825 18.0025 9.675 17.5 8.75 17.5C7.36875 17.5 6.25 18.6187 6.25 20C6.25 21.3813 7.36875 22.5 8.75 22.5C9.675 22.5 10.4825 21.9975 10.915 21.25H13.75V23.125C13.75 25.5375 11.7875 27.5 9.375 27.5ZM26.6512 17.66C27.2062 18.3463 27.5 19.155 27.5 20C27.5 21.37 26.7362 22.63 25.5037 23.2887C25.1863 23.4587 24.9575 23.7575 24.8762 24.1088C24.4162 26.105 22.6663 27.4988 20.625 27.4988C18.2125 27.4988 16.25 25.5363 16.25 23.1238V17.4987H18.75C20.8175 17.4987 22.5 15.8162 22.5 13.7487V13.4137C23.2475 12.9812 23.75 12.1737 23.75 11.2487C23.75 9.8675 22.6313 8.74875 21.25 8.74875C19.8687 8.74875 18.75 9.8675 18.75 11.2487C18.75 12.1737 19.2525 12.9812 20 13.4137V13.7487C20 14.4375 19.44 14.9987 18.75 14.9987H16.25V5C16.25 3.62125 17.3713 2.5 18.75 2.5C20.1287 2.5 21.25 3.62125 21.25 5C21.25 5.69 21.8088 6.25 22.5 6.25C23.8787 6.25 25 7.37125 25 8.75C25 8.90125 24.9775 9.04625 24.9537 9.19C24.8612 9.7125 25.1088 10.2362 25.5713 10.4963C26.7613 11.165 27.5 12.4125 27.5 13.75C27.5 14.5938 27.2075 15.4025 26.6512 16.09C26.2812 16.5487 26.2812 17.2013 26.6512 17.66Z" fill="black"/>
</g>
<defs>
<clipPath id="clip0_3_568">
<rect width="30" height="30" fill="white"/>
</clipPath>
</defs>
</svg>
