<svg width="30" height="30" viewBox="0 0 30 30" fill="none" xmlns="http://www.w3.org/2000/svg">
<g id="Icon">
<path id="Vector" d="M28.4375 12.1159C29.445 13.2584 30 14.7259 30 16.2496V22.4996C30 25.9459 27.1963 28.7496 23.75 28.7496H6.25C2.80375 28.7496 0 25.9459 0 22.4996V16.2496C0 12.8034 2.80375 9.99962 6.25 9.99962H11.25C11.9412 9.99962 12.5 10.5596 12.5 11.2496C12.5 11.9396 11.9412 12.4996 11.25 12.4996H6.25C4.1825 12.4996 2.5 14.1821 2.5 16.2496V22.4996C2.5 24.5671 4.1825 26.2496 6.25 26.2496H23.75C25.8175 26.2496 27.5 24.5671 27.5 22.4996V16.2496C27.5 15.3359 27.1663 14.4546 26.5625 13.7696C26.1063 13.2521 26.155 12.4621 26.6738 12.0046C27.19 11.5496 27.98 11.5984 28.4375 12.1159ZM6.25 19.3746C6.25 20.4096 7.09 21.2496 8.125 21.2496C9.16 21.2496 10 20.4096 10 19.3746C10 18.3396 9.16 17.4996 8.125 17.4996C7.09 17.4996 6.25 18.3396 6.25 19.3746ZM14.375 21.2496C15.41 21.2496 16.25 20.4096 16.25 19.3746C16.25 18.3396 15.41 17.4996 14.375 17.4996C13.34 17.4996 12.5 18.3396 12.5 19.3746C12.5 20.4096 13.34 21.2496 14.375 21.2496ZM15 13.7496V11.7671C15 10.4321 15.52 9.17587 16.465 8.23212L23.5987 1.09837C25.0612 -0.364126 27.4388 -0.364126 28.9013 1.09837C29.6087 1.80587 30 2.74837 30 3.74962C30 4.75087 29.6087 5.69337 28.9013 6.40212L21.7675 13.5359C20.8237 14.4796 19.5675 15.0009 18.2325 15.0009H16.25C15.5588 15.0009 15 14.4409 15 13.7509V13.7496ZM17.5 12.4996H18.2325C18.9 12.4996 19.5275 12.2396 20 11.7671L27.1338 4.63337C27.37 4.39712 27.5 4.08337 27.5 3.74962C27.5 3.41587 27.37 3.10212 27.1338 2.86587C26.645 2.37712 25.855 2.37837 25.3662 2.86587L18.2325 9.99962C17.7675 10.4659 17.5 11.1096 17.5 11.7671V12.4996Z" fill="black"/>
</g>
</svg>
