<svg width="33" height="34" viewBox="0 0 33 34" fill="none" xmlns="http://www.w3.org/2000/svg">
<g id="social-network 1">
<g clip-path="url(#clip0_3_526)">
<path id="Vector" d="M31.2822 10.905C30.6418 10.1671 29.8504 9.57533 28.9615 9.16986C28.0726 8.7644 27.107 8.55468 26.1299 8.55488H20.6828L21.1416 5.7678C21.304 4.78633 21.1081 3.77921 20.5897 2.93012C20.0714 2.08102 19.2651 1.44655 18.3179 1.14241C17.3708 0.838278 16.3458 0.884748 15.43 1.27335C14.5143 1.66195 13.7687 2.36678 13.3293 3.25929L10.7157 8.55488H7.0123C5.20214 8.55705 3.46674 9.2771 2.18676 10.5571C0.906783 11.8371 0.186739 13.5725 0.18457 15.3826L0.18457 22.2103C0.186739 24.0205 0.906783 25.7559 2.18676 27.0359C3.46674 28.3159 5.20214 29.0359 7.0123 29.0381H25.1741C26.8175 29.0314 28.4038 28.4349 29.6446 27.3573C30.8854 26.2797 31.6981 24.7925 31.9349 23.1662L32.8976 16.3385C33.0332 15.37 32.9591 14.3836 32.6804 13.4462C32.4017 12.5087 31.9249 11.6421 31.2822 10.905ZM2.91566 22.2103V15.3826C2.91566 14.2961 3.34727 13.2541 4.11554 12.4859C4.88381 11.7176 5.92581 11.286 7.0123 11.286H9.74339V26.307H7.0123C5.92581 26.307 4.88381 25.8754 4.11554 25.1071C3.34727 24.3388 2.91566 23.2968 2.91566 22.2103ZM30.187 15.9548L29.2229 22.7825C29.082 23.7575 28.5958 24.6495 27.8527 25.2963C27.1097 25.9431 26.1592 26.3018 25.1741 26.307H12.4745V10.9227C12.6032 10.8106 12.7097 10.6754 12.7886 10.524L15.7777 4.4678C15.8898 4.26561 16.0483 4.09289 16.2402 3.96386C16.432 3.83483 16.6517 3.75317 16.8812 3.72557C17.1108 3.69798 17.3436 3.72525 17.5605 3.80514C17.7775 3.88503 17.9724 4.01526 18.1292 4.18513C18.2634 4.34114 18.3615 4.52484 18.4165 4.72312C18.4715 4.92139 18.482 5.12937 18.4474 5.33219L17.7264 9.70194C17.6947 9.89719 17.7059 10.097 17.759 10.2875C17.8122 10.478 17.9061 10.6547 18.0343 10.8053C18.1625 10.956 18.3219 11.077 18.5014 11.16C18.6809 11.243 18.8764 11.286 19.0742 11.286H26.1299C26.7163 11.2859 27.2959 11.4117 27.8294 11.6549C28.363 11.898 28.8382 12.2529 29.2228 12.6955C29.6074 13.1381 29.8925 13.6582 30.0588 14.2204C30.2252 14.7827 30.2689 15.3742 30.187 15.9548Z" fill="#A19B9B"/>
</g>
</g>
<defs>
<clipPath id="clip0_3_526">
<rect x="0.18457" y="0.361633" width="32.7731" height="32.7731" fill="white"/>
</clipPath>
</defs>
</svg>
