<svg width="34" height="34" viewBox="0 0 34 34" fill="none" xmlns="http://www.w3.org/2000/svg">
<g id="volume 1">
<g clip-path="url(#clip0_3_507)">
<g id="01 align center">
<path id="Vector" d="M3.63637 8.95947C2.91204 8.95947 2.21737 9.24721 1.70519 9.75939C1.19301 10.2716 0.905273 10.9662 0.905273 11.6906L0.905273 22.634C0.905273 23.3584 1.19301 24.053 1.70519 24.5652C2.21737 25.0774 2.91204 25.3651 3.63637 25.3651H7.4599L17.2918 33.553V0.779846L7.4599 8.95947H3.63637ZM14.5607 6.608V27.7207L8.44992 22.6381H3.63637V11.6947H8.44992L14.5607 6.608Z" fill="#A19B9B"/>
<path id="Vector_2" d="M28.2157 17.1664C28.2154 15.3547 27.4963 13.6171 26.2162 12.335C24.9362 11.0529 23.1997 10.331 21.388 10.3278H20.0225V13.0589H21.388C22.4763 13.0589 23.52 13.4912 24.2896 14.2607C25.0591 15.0303 25.4915 16.074 25.4915 17.1623C25.4915 18.2506 25.0591 19.2944 24.2896 20.0639C23.52 20.8335 22.4763 21.2658 21.388 21.2658H20.0225V23.9969H21.388C23.1982 23.9933 24.9332 23.2724 26.2129 21.9921C27.4927 20.7119 28.2129 18.9766 28.2157 17.1664Z" fill="#A19B9B"/>
<path id="Vector_3" d="M21.388 4.85597H20.0225V7.58706H21.388C23.9275 7.58706 26.363 8.59588 28.1587 10.3916C29.9544 12.1873 30.9632 14.6228 30.9632 17.1623C30.9632 19.7018 29.9544 22.1373 28.1587 23.933C26.363 25.7287 23.9275 26.7375 21.388 26.7375H20.0225V29.4686H21.388C24.6529 29.4686 27.7841 28.1716 30.0928 25.8629C32.4014 23.5543 33.6984 20.4231 33.6984 17.1582C33.6984 13.8933 32.4014 10.7621 30.0928 8.45341C27.7841 6.14476 24.6529 4.84778 21.388 4.84778V4.85597Z" fill="#A19B9B"/>
</g>
</g>
<rect x="1.40527" y="1.27985" width="31.7731" height="31.7731" stroke="#D9D9D9"/>
</g>
<defs>
<clipPath id="clip0_3_507">
<rect x="0.905273" y="0.779846" width="32.7731" height="32.7731" fill="white"/>
</clipPath>
</defs>
</svg>
