<svg width="32" height="32" viewBox="0 0 32 32" fill="none" xmlns="http://www.w3.org/2000/svg">
<path id="Vector" d="M30.4 30.6667C30.4 31.404 29.6832 32 28.8 32C27.9168 32 27.2 31.404 27.2 30.6667C27.2 27.7253 24.3296 25.3333 20.8 25.3333H11.2C7.6704 25.3333 4.8 27.7253 4.8 30.6667C4.8 31.404 4.0832 32 3.2 32C2.3168 32 1.6 31.404 1.6 30.6667C1.6 26.2547 5.9056 22.6667 11.2 22.6667H20.8C26.0944 22.6667 30.4 26.2547 30.4 30.6667ZM32 10V12.6667C32 13.7693 30.9232 14.6667 29.6 14.6667H28.8C28.8 17.608 25.9296 20 22.4 20H9.6C6.0704 20 3.2 17.608 3.2 14.6667H2.4C1.0768 14.6667 0 13.7693 0 12.6667V10C0 8.89733 1.0768 8 2.4 8H3.2C3.2 5.05867 6.0704 2.66667 9.6 2.66667H14.4V1.33333C14.4 0.596 15.1168 0 16 0C16.8832 0 17.6 0.596 17.6 1.33333V2.66667H22.4C25.9296 2.66667 28.8 5.05867 28.8 8H29.6C30.9232 8 32 8.89733 32 10ZM25.6 8C25.6 6.52933 24.1648 5.33333 22.4 5.33333H9.6C7.8352 5.33333 6.4 6.52933 6.4 8V14.6667C6.4 16.1373 7.8352 17.3333 9.6 17.3333H22.4C24.1648 17.3333 25.6 16.1373 25.6 14.6667V8ZM12 9.33333C10.6752 9.33333 9.6 10.2293 9.6 11.3333C9.6 12.4373 10.6752 13.3333 12 13.3333C13.3248 13.3333 14.4 12.4373 14.4 11.3333C14.4 10.2293 13.3248 9.33333 12 9.33333ZM20 9.33333C18.6752 9.33333 17.6 10.2293 17.6 11.3333C17.6 12.4373 18.6752 13.3333 20 13.3333C21.3248 13.3333 22.4 12.4373 22.4 11.3333C22.4 10.2293 21.3248 9.33333 20 9.33333Z" fill="#3247E8" fill-opacity="0.76"/>
</svg>
