<svg width="30" height="30" viewBox="0 0 30 30" fill="none" xmlns="http://www.w3.org/2000/svg">
<g clip-path="url(#clip0_3_1003)">
<path d="M22.4673 8.93251C22.0523 8.85001 21.7135 8.59126 21.5398 8.22126C19.5998 4.13251 15.111 1.84626 10.621 2.67376C6.53104 3.42376 3.32478 6.68876 2.64104 10.8C2.43853 12.0138 2.45353 13.2288 2.68228 14.4125C2.75728 14.7988 2.59104 15.2288 2.24979 15.5388C0.818535 16.84 -0.00146484 18.6938 -0.00146484 20.6263C-0.00146484 24.4163 3.08229 27.5013 6.87354 27.5013H20.6235C25.7935 27.5013 29.9985 23.2963 29.9985 18.1263C29.9985 13.67 26.831 9.80376 22.466 8.93376L22.4673 8.93251ZM20.6248 25H6.87478C4.46229 25 2.49978 23.0375 2.49978 20.625C2.49978 19.3963 3.02228 18.215 3.93228 17.3875C4.91478 16.4938 5.37604 15.1713 5.13604 13.9338C4.96354 13.0438 4.95354 12.1275 5.10604 11.2075C5.60979 8.18001 8.06229 5.68126 11.0698 5.13001C11.551 5.04251 12.0298 5.00001 12.501 5.00001C15.391 5.00001 18.0085 6.61126 19.2785 9.29251C19.796 10.3825 20.7785 11.1438 21.976 11.3838C25.1748 12.0225 27.4973 14.8563 27.4973 18.1263C27.4973 21.9163 24.4135 25.0013 20.6223 25.0013L20.6248 25ZM18.901 16.6163C19.3898 17.105 19.3898 17.895 18.901 18.3838L15.5173 21.7675C15.0335 22.2513 14.3973 22.495 13.761 22.4975L13.7498 22.5L13.7385 22.4975C13.1023 22.495 12.466 22.2513 11.9823 21.7675L8.59854 18.3838C8.10979 17.895 8.10979 17.105 8.59854 16.6163C9.08729 16.1275 9.87729 16.1275 10.366 16.6163L12.4998 18.75V12.5C12.4998 11.8088 13.0598 11.25 13.7498 11.25C14.4398 11.25 14.9998 11.8088 14.9998 12.5V18.75L17.1335 16.6163C17.6223 16.1275 18.4123 16.1275 18.901 16.6163Z" fill="white"/>
</g>
<defs>
<clipPath id="clip0_3_1003">
<rect width="30" height="30" fill="white"/>
</clipPath>
</defs>
</svg>
