<svg width="34" height="34" viewBox="0 0 34 34" fill="none" xmlns="http://www.w3.org/2000/svg">
<g id="subtitles 1">
<g clip-path="url(#clip0_3_517)">
<path id="Vector" d="M26.8194 30.8219H7.70175C5.89159 30.8197 4.15619 30.0996 2.87621 28.8197C1.59624 27.5397 0.876192 25.8043 0.874023 23.9941L0.874023 10.3387C0.876192 8.5285 1.59624 6.79309 2.87621 5.51312C4.15619 4.23314 5.89159 3.51309 7.70175 3.51093H26.8194C28.6296 3.51309 30.365 4.23314 31.6449 5.51312C32.9249 6.79309 33.645 8.5285 33.6471 10.3387V23.9941C33.645 25.8043 32.9249 27.5397 31.6449 28.8197C30.365 30.0996 28.6296 30.8197 26.8194 30.8219ZM7.70175 6.24202C6.61526 6.24202 5.57326 6.67363 4.80499 7.4419C4.03673 8.21016 3.60512 9.25216 3.60512 10.3387V23.9941C3.60512 25.0806 4.03673 26.1226 4.80499 26.8909C5.57326 27.6592 6.61526 28.0908 7.70175 28.0908H26.8194C27.9059 28.0908 28.9479 27.6592 29.7162 26.8909C30.4844 26.1226 30.916 25.0806 30.916 23.9941V10.3387C30.916 9.25216 30.4844 8.21016 29.7162 7.4419C28.9479 6.67363 27.9059 6.24202 26.8194 6.24202H7.70175Z" fill="#A19B9B"/>
<path id="Vector_2" d="M26.8192 18.5319H15.8948C15.5327 18.5319 15.1853 18.3881 14.9293 18.132C14.6732 17.8759 14.5293 17.5286 14.5293 17.1664C14.5293 16.8042 14.6732 16.4569 14.9293 16.2008C15.1853 15.9447 15.5327 15.8008 15.8948 15.8008H26.8192C27.1814 15.8008 27.5287 15.9447 27.7848 16.2008C28.0409 16.4569 28.1848 16.8042 28.1848 17.1664C28.1848 17.5286 28.0409 17.8759 27.7848 18.132C27.5287 18.3881 27.1814 18.5319 26.8192 18.5319Z" fill="#A19B9B"/>
<path id="Vector_3" d="M10.4326 18.5319H7.70148C7.33932 18.5319 6.99199 18.3881 6.7359 18.132C6.47981 17.8759 6.33594 17.5286 6.33594 17.1664C6.33594 16.8042 6.47981 16.4569 6.7359 16.2008C6.99199 15.9447 7.33932 15.8008 7.70148 15.8008H10.4326C10.7947 15.8008 11.1421 15.9447 11.3982 16.2008C11.6543 16.4569 11.7981 16.8042 11.7981 17.1664C11.7981 17.5286 11.6543 17.8759 11.3982 18.132C11.1421 18.3881 10.7947 18.5319 10.4326 18.5319Z" fill="#A19B9B"/>
<path id="Vector_4" d="M18.6259 25.3597H7.70148C7.33932 25.3597 6.99199 25.2158 6.7359 24.9597C6.47981 24.7036 6.33594 24.3563 6.33594 23.9941C6.33594 23.632 6.47981 23.2846 6.7359 23.0286C6.99199 22.7725 7.33932 22.6286 7.70148 22.6286H18.6259C18.988 22.6286 19.3354 22.7725 19.5914 23.0286C19.8475 23.2846 19.9914 23.632 19.9914 23.9941C19.9914 24.3563 19.8475 24.7036 19.5914 24.9597C19.3354 25.2158 18.988 25.3597 18.6259 25.3597Z" fill="#A19B9B"/>
<path id="Vector_5" d="M26.8193 25.3597H24.0882C23.726 25.3597 23.3787 25.2158 23.1226 24.9597C22.8665 24.7036 22.7227 24.3563 22.7227 23.9941C22.7227 23.632 22.8665 23.2846 23.1226 23.0286C23.3787 22.7725 23.726 22.6286 24.0882 22.6286H26.8193C27.1815 22.6286 27.5288 22.7725 27.7849 23.0286C28.041 23.2846 28.1848 23.632 28.1848 23.9941C28.1848 24.3563 28.041 24.7036 27.7849 24.9597C27.5288 25.2158 27.1815 25.3597 26.8193 25.3597Z" fill="#A19B9B"/>
</g>
<rect x="1.37402" y="1.27985" width="31.7731" height="31.7731" stroke="#D9D9D9"/>
</g>
<defs>
<clipPath id="clip0_3_517">
<rect x="0.874023" y="0.779846" width="32.7731" height="32.7731" fill="white"/>
</clipPath>
</defs>
</svg>
